# AST/ASF file generated using VICON BodyLanguage
# -----------------------------------------------
:version 1.10
:name VICON
:units
  mass 1.0
  length 0.45
  angle deg
:documentation
   .ast/.asf automatically generated from VICON data using
   VICON BodyBuilder and BodyLanguage model FoxedUp or BRILLIANT.MOD
:root
   order TX TY TZ RX RY RZ
   axis XYZ
   position 0 0 0  
   orientation 0 0 0 
:bonedata
  begin
     id 1 
     name lhipjoint
     direction 0.692814 -0.645514 0.321437 
     length 2.38754 
     axis 0 0 0  XYZ
  end
  begin
     id 2 
     name lfemur
     direction 0.34202 -0.939693 0  
     length 6.41921  
     axis 0 0 20  XYZ
    dof rx ry rz
    limits (-160.0 20.0)
           (-70.0 70.0)
           (-60.0 70.0)
  end
  begin
     id 3 
     name ltibia
     direction 0.34202 -0.939693 0   
     length 6.98247   
     axis 0 0 20   XYZ
    dof rx
    limits (-10.0 170.0)
  end
  begin
     id 4 
     name lfoot
     direction 0.0947186 -0.260237 0.960888   
     length 1.83034   
     axis -90 7.62852e-016 20   XYZ
    dof rx rz
    limits (-45.0 90.0)
           (-70.0 20.0)
  end
  begin
     id 5 
     name ltoes
     direction 1.53538e-011 -4.21952e-011 1   
     length 0.920499   
     axis -90 7.62852e-016 20   XYZ
    dof rx
    limits (-90.0 20.0)
  end
  begin
     id 6 
     name rhipjoint
     direction -0.631686 -0.693949 0.345555   
     length 2.2209  
     axis 0 0 0  XYZ 
  end
  begin
     id 7 
     name rfemur
     direction -0.34202 -0.939693 0   
     length 6.49542   
     axis 0 0 -20   XYZ
    dof rx ry rz
    limits (-160.0 20.0)
           (-70.0 70.0)
           (-70.0 60.0)
  end
  begin
     id 8 
     name rtibia
     direction -0.34202 -0.939693 0   
     length 7.21712   
     axis 0 0 -20   XYZ
    dof rx
    limits (-10.0 170.0)
 end
 begin
     id 9 
     name rfoot
     direction -0.0825378 -0.226771 0.970444   
     length 1.89724  
     axis -90 -7.62852e-016 -20   XYZ
    dof rx rz
    limits (-45.0 90.0)
           (-20.0 70.0)
  end
  begin
     id 10 
     name rtoes
     direction -1.53515e-011 -4.22016e-011 1   
     length 0.955868   
     axis -90 -7.62852e-016 -20   XYZ
    dof rx
    limits (-90.0 20.0)
  end
  begin
     id 11 
     name lowerback
     direction -0.0104711 0.984802 -0.173368   
     length 1.84931   
     axis 0 0 0   XYZ
    dof rx ry rz
    limits (-20.0 45.0)
           (-30.0 30.0)
           (-30.0 30.0)
  end
  begin
     id 12 
     name upperback
     direction -0.00286433 0.999996 -0.000382853   
     length 1.85768   
     axis 0 0 0   XYZ
    dof rx ry rz
    limits (-20.0 45.0)
           (-30.0 30.0)
           (-30.0 30.0)
  end
  begin
     id 13 
     name thorax
     direction 0.00167534 0.996793 0.0800069   
     length 1.92   
     axis 0 0 0   XYZ
    dof rx ry rz
    limits (-20.0 45.0)
           (-30.0 30.0)
           (-30.0 30.0)
  end
  begin
     id 14 
     name lowerneck
     direction -0.0672491 0.995415 0.068018   
     length 1.58923   
     axis 0 0 0   XYZ
    dof rx ry rz
    limits (-20.0 45.0)
           (-30.0 30.0)
           (-30.0 30.0)
  end
  begin
     id 15 
     name upperneck
     direction 0.0958019 0.982476 -0.159884   
     length 1.60189   
     axis 0 0 0   XYZ
    dof rx ry rz
    limits (-20.0 45.0)
           (-30.0 30.0)
           (-30.0 30.0)
  end
  begin
     id 16
     name head
     direction 0.032989 0.997338 -0.0650226  
     length 1.61681  
     axis 0 0 0   XYZ
    dof rx ry rz
    limits (-20.0 45.0)
           (-30.0 30.0)
           (-30.0 30.0)
  end
  begin
     id 17 
     name lclavicle
     direction 0.954279 0.298875 -0.00496069  
     length 2.99449  
     axis 0 0 0   XYZ
    dof ry rz
    limits (-20.0 10.0)
           (0.0 20.0)
  end
  begin
     id 18 
     name lhumerus
     direction 1 -4.48985e-011 -4.2057e-027   
     length 4.79185   
     axis 180 -30 -90   XYZ
    dof rx ry rz
    limits (-60.0 90.0)
           (-90.0 90.0)
           (-90.0 90.0)
  end
  begin
     id 19
     name lradius
     direction 1 -4.48945e-011 1.15441e-028   
     length 2.65553   
     axis 180 -30 -90   XYZ
    dof rx
    limits (-10.0 170.0)
  end
  begin
     id 20
     name lwrist
     direction 1 -4.4899e-011 4.8894e-028   
     length 1.32777   
     axis -2.56392e-016 90 90   XYZ
    dof ry
    limits (-180.0 0.0)
 end
  begin
     id 21 
     name lhand
     direction 1 -4.48908e-011 9.7788e-028   
     length 0.743904   
     axis -6.23971e-016 90 90   XYZ
    dof rx rz
    limits (-90.0 90.0)
           (-45.0 45.0)
  end
  begin
     id 22 
     name lfingers
     direction 1 -4.49068e-011 1.95576e-027   
     length 0.599754   
     axis -1.24794e-015 90 90   XYZ
    dof rx
    limits (0.0 90.0)
  end
  begin
     id 23
     name lthumb
     direction 0.707107 -6.34883e-011 0.707107   
     length 0.861131   
     axis -90 45 2.85299e-015   XYZ
    dof rx rz
    limits (-45.0 45.0)
           (-45.0 45.0)
  end
  begin
     id 24 
     name rclavicle
     direction -0.957921 0.286916 0.00811568   
     length 3.06817  
     axis 0 0 0   XYZ 
    dof ry rz
    limits (-10.0 20.0)
           (-20.0 0.0)
  end
  begin
     id 25 
     name rhumerus
     direction -1 -4.48971e-011 -3.07942e-027  
     length 4.77254   
     axis 180 30 90   XYZ
    dof rx ry rz
    limits (-90.0 60.0)
           (-90.0 90.0)
           (-90.0 90.0)
  end
  begin
     id 26 
     name rradius
     direction -1 -4.48957e-011 -9.6815e-028   
     length 2.75995   
     axis 180 30 90   XYZ
    dof rx
    limits (-10.0 170.0)
  end
  begin
     id 27 
     name rwrist
     direction -1 -4.48979e-011 4.8894e-028   
     length 1.37997   
     axis -2.56392e-016 -90 -90   XYZ
    dof ry
    limits (-180.0 0.0)
  end
  begin
     id 28
     name rhand
     direction -1 -4.48906e-011 9.7788e-028   
     length 0.701619   
     axis -6.23971e-016 -90 -90   XYZ
    dof rx rz
    limits (-90.0 90.0)
           (-45.0 45.0)
  end
  begin
     id 29
     name rfingers
     direction -1 -4.49018e-011 1.95576e-027   
     length 0.565663   
     axis -1.24794e-015 -90 -90   XYZ
    dof rx
    limits (0.0 90.0)
  end
  begin
     id 30
     name rthumb
     direction -0.707107 -6.34881e-011 0.707107   
     length 0.812183   
     axis -90 -45 -2.85299e-015   XYZ
    dof rx rz
    limits (-45.0 45.0)
           (-45.0 45.0)
  end
:hierarchy
  begin
    root lhipjoint rhipjoint lowerback
    lhipjoint lfemur
    lfemur ltibia
    ltibia lfoot
    lfoot ltoes
    rhipjoint rfemur
    rfemur rtibia
    rtibia rfoot
    rfoot rtoes
    lowerback upperback
    upperback thorax
    thorax lowerneck lclavicle rclavicle
    lowerneck upperneck
    upperneck head
    lclavicle lhumerus
    lhumerus lradius
    lradius lwrist
    lwrist lhand lthumb
    lhand lfingers
    rclavicle rhumerus
    rhumerus rradius
    rradius rwrist
    rwrist rhand rthumb
    rhand rfingers
  end

#!OML:ASF F:\VICON\USERDATA\INSTALL\rory3\rory3.ASF
:FULLY-SPECIFIED
:DEGREES
415
root 0.848714 15.2386 -2.44309 -1.30213 -19.7549 0.807935
lowerback 22.9148 -3.13159 -5.39161
upperback 10.5134 -5.4096 -3.08682
thorax -1.02263 -2.86669 0.974935
lowerneck -16.1625 -1.67439 -6.54617
upperneck 30.5029 0.634553 -3.86516
head 12.9435 -1.0765 -0.289972
rclavicle 8.34896e-014 2.70347e-014
rhumerus 68.5327 21.0459 -53.9632
rradius 1.78264
rwrist -32.6637
rhand -6.85526 14.8967
rfingers 7.12502
rthumb 19.01 -14.1943
lclavicle 8.34896e-014 2.70347e-014
lhumerus 47.4226 -6.7664 127.062
lradius 18.4859
lwrist 41.1992
lhand -23.1575 35.1906
lfingers 7.12502
lthumb 3.29103 65.145
rfemur -29.6894 19.1574 12.7552
rtibia 43.4881
rfoot -11.6376 -3.16632
rtoes -18.6354
lfemur -21.9836 8.29005 -17.1261
ltibia 44.2431
lfoot -16.2859 7.2262
ltoes -15.0708
416
root 0.848866 15.2276 -2.46799 -1.15058 -19.145 0.686444
lowerback 23.172 -3.0871 -5.44254
upperback 10.3951 -5.37716 -3.04316
thorax -1.27026 -2.84099 1.06599
lowerneck -15.9443 -1.65456 -6.92566
upperneck 30.2401 0.706206 -3.72494
head 12.79 -1.05577 -0.153642
rclavicle 7.55382e-014 -2.38542e-014
rhumerus 68.1472 21.9064 -54.4963
rradius 1.70431
rwrist -32.6364
rhand -6.19856 14.9736
rfingers 7.12502
rthumb 19.6415 -14.0541
lclavicle 7.55382e-014 -2.38542e-014
lhumerus 46.9687 -5.21325 127.746
lradius 18.7448
lwrist 39.7313
lhand -23.5377 35.5247
lfingers 7.12502
lthumb 2.9238 65.4844
rfemur -29.8971 18.7152 12.8165
rtibia 43.709
rfoot -11.6709 -3.24841
rtoes -18.4164
lfemur -22.5066 7.89325 -17.0473
ltibia 44.5602
lfoot -16.2141 7.04288
ltoes -15.4189
417
root 0.845572 15.2146 -2.49386 -0.963194 -18.5282 0.4484
lowerback 23.3542 -2.99034 -5.25982
upperback 10.4087 -5.22302 -3.07895
thorax -1.3744 -2.75279 0.903476
lowerneck -15.98 -1.69721 -6.9199
upperneck 30.0115 0.629713 -3.66498
head 12.7032 -1.06817 -0.139266
rclavicle -2.3059e-014 1.59028e-014
rhumerus 67.7244 22.4214 -55.2342
rradius 1.54844
rwrist -32.5459
rhand -6.30265 14.783
rfingers 7.12502
rthumb 19.5414 -14.255
lclavicle -2.3059e-014 1.59028e-014
lhumerus 46.4417 -3.83313 128.456
lradius 19.2436
lwrist 37.5569
lhand -20.9229 40.1382
lfingers 7.12502
lthumb 5.44875 70.0481
rfemur -30.0846 18.3035 13.0217
rtibia 43.9154
rfoot -11.7159 -3.4455
rtoes -18.5255
lfemur -23.0317 7.47815 -16.8246
ltibia 44.8691
lfoot -16.097 6.90131
ltoes -15.8682
418
root 0.840184 15.2047 -2.52016 -0.8323 -17.9355 0.336183
lowerback 23.3594 -2.85902 -5.31209
upperback 10.5687 -5.05329 -3.08026
thorax -1.20376 -2.67606 0.884598
lowerneck -16.1544 -1.76137 -7.05134
upperneck 29.6743 0.5527 -3.53531
head 12.6024 -1.08383 -0.0747913
rclavicle 2.8625e-014 7.95139e-015
rhumerus 67.5757 22.8669 -55.826
rradius 1.42384
rwrist -32.5339
rhand -7.00195 14.6746
rfingers 7.12502
rthumb 18.8689 -14.4302
lclavicle 2.8625e-014 7.95139e-015
lhumerus 46.2736 -4.19491 127.416
lradius 19.3832
lwrist 39.7838
lhand -22.4885 39.6892
lfingers 7.12502
lthumb 3.93709 69.6326
rfemur -30.2683 17.9246 13.1045
rtibia 44.1093
rfoot -11.7428 -3.64174
rtoes -18.615
lfemur -23.5217 7.0548 -16.7171
ltibia 45.1514
lfoot -15.987 6.73507
ltoes -15.7659
419
root 0.836417 15.1977 -2.54015 -0.771588 -17.3554 0.260243
lowerback 23.3491 -2.67798 -5.32479
upperback 10.7483 -4.80911 -3.06127
thorax -1.00948 -2.56267 0.847228
lowerneck -16.2897 -1.91501 -7.3743
upperneck 29.345 0.352653 -3.24365
head 12.5005 -1.15293 0.0646249
rclavicle -8.50798e-014 1.11319e-014
rhumerus 67.3486 23.2241 -56.3476
rradius 1.32374
rwrist -32.6252
rhand -7.44308 14.7789
rfingers 7.12502
rthumb 18.4446 -14.3666
lclavicle -8.50798e-014 1.11319e-014
lhumerus 46.1962 -5.06798 125.763
lradius 19.5887
lwrist 42.2543
lhand -23.5318 39.2427
lfingers 7.12502
lthumb 2.92951 69.2024
rfemur -30.3549 17.4894 13.1681
rtibia 44.2848
rfoot -11.7595 -3.76619
rtoes -18.8705
lfemur -23.9015 6.65526 -16.665
ltibia 45.3986
lfoot -15.8693 6.60377
ltoes -15.7129
420
root 0.833113 15.1899 -2.55438 -0.711823 -16.7438 0.103132
lowerback 23.317 -2.52044 -5.0763
upperback 10.9303 -4.54451 -3.14268
thorax -0.835152 -2.42623 0.55258
lowerneck -16.3495 -2.0915 -7.52189
upperneck 29.0544 0.0583905 -2.9389
head 12.3997 -1.2432 0.16444
rclavicle -1.19271e-014 4.29375e-014
rhumerus 66.9914 23.4823 -57.1299
rradius 1.173
rwrist -32.698
rhand -7.24658 14.8558
rfingers 7.12502
rthumb 18.6337 -14.2717
lclavicle -1.19271e-014 4.29375e-014
lhumerus 45.925 -5.20818 124.92
lradius 19.8917
lwrist 42.3546
lhand -22.6551 40.6333
lfingers 7.12502
lthumb 3.77616 70.5796
rfemur -30.3611 17.013 13.3249
rtibia 44.4508
rfoot -11.8076 -3.89089
rtoes -18.7195
lfemur -24.2198 6.21612 -16.5304
ltibia 45.6006
lfoot -15.747 6.4302
ltoes -15.218
421
root 0.82747 15.1832 -2.56898 -0.682975 -16.108 0.0239004
lowerback 23.2409 -2.4501 -4.95265
upperback 11.1111 -4.41841 -3.33821
thorax -0.630869 -2.35931 0.234579
lowerneck -16.2018 -2.11702 -7.41807
upperneck 28.6511 -0.0951607 -2.73012
head 12.2058 -1.25298 0.209505
rclavicle -8.5875e-014 4.77083e-014
rhumerus 66.7517 23.917 -58.1422
rradius 1.04748
rwrist -32.4286
rhand -7.14512 14.8461
rfingers 7.12502
rthumb 18.7312 -14.2721
lclavicle -8.5875e-014 4.77083e-014
lhumerus 45.6661 -4.92898 124.515
lradius 19.8323
lwrist 43.4014
lhand -24.2337 38.7994
lfingers 7.12502
lthumb 2.25163 68.7673
rfemur -30.3558 16.5543 13.4078
rtibia 44.6082
rfoot -11.8703 -4.04084
rtoes -18.2351
lfemur -24.5116 5.76378 -16.4681
ltibia 45.7773
lfoot -15.6271 6.29378
ltoes -15.2215
